<svg xmlns:dc="http://purl.org/dc/elements/1.1/" xmlns:cc="http://creativecommons.org/ns#" xmlns:rdf="http://www.w3.org/1999/02/22-rdf-syntax-ns#" xmlns:svg="http://www.w3.org/2000/svg" xmlns="http://www.w3.org/2000/svg" xmlns:sodipodi="http://sodipodi.sourceforge.net/DTD/sodipodi-0.dtd" xmlns:inkscape="http://www.inkscape.org/namespaces/inkscape" version="1.1" x="0px" y="0px" viewBox="0 0 42 52.5"><g transform="translate(0,-1010.3622)"><path style="color:#000000;text-indent:0;text-decoration-line:none;text-transform:none;direction:ltr;block-progression:tb;baseline-shift:baseline;enable-background:accumulate;" d="M 21 0 C 9.407951 0 1.3e-005 9.408 0 21 C -4.0000004e-006 32.5921 9.407939 42 21 42 C 32.592061 42 42.000005 32.5921 42 21 C 41.999988 9.408 32.592049 0 21 0 z M 21 1 C 32.051601 1 40.999988 9.9484 41 21 C 41.000004 32.0516 32.051612 41 21 41 C 9.948388 41 0.999996 32.0516 1 21 C 1.000012 9.9484 9.948399 1 21 1 z M 26.003906 11.992188 L 26.003906 13.992188 L 24.003906 13.992188 L 24.003906 14.992188 L 26.003906 14.992188 L 26.003906 16.992188 L 27.003906 16.992188 L 27.003906 14.992188 L 29.003906 14.992188 L 29.003906 13.992188 L 27.003906 13.992188 L 27.003906 11.992188 L 26.003906 11.992188 z M 7.4414062 12.960938 C 7.1903162 12.991937 6.9862109 13.239788 7.0039062 13.492188 L 7.0039062 22.367188 C 6.9986863 22.409187 6.9986862 22.451188 7.0039062 22.492188 L 7.0039062 26.492188 C 6.9986863 26.534187 6.9986862 26.576188 7.0039062 26.617188 L 7.0039062 29.492188 C 7.0001663 29.756388 7.2397235 30 7.5039062 30 C 7.768089 30 8.007642 29.756388 8.0039062 29.492188 L 8.0039062 26.992188 L 33.003906 26.992188 L 33.003906 29.492188 C 33.000206 29.756388 33.239723 30 33.503906 30 C 33.768089 30 34.007642 29.756388 34.003906 29.492188 L 34.003906 26.585938 C 34.006806 26.554938 34.006806 26.523187 34.003906 26.492188 L 34.003906 22.492188 C 34.006806 22.461188 34.006806 22.429437 34.003906 22.398438 L 34.003906 19.492188 C 34.024706 19.198087 33.733887 18.923337 33.441406 18.960938 C 33.190316 18.991937 32.986211 19.239788 33.003906 19.492188 L 33.003906 21.992188 L 8.0039062 21.992188 L 8.0039062 13.492188 C 8.0247073 13.197987 7.733887 12.923338 7.4414062 12.960938 z M 11.503906 17.992188 C 10.681555 17.992188 10.003906 18.669787 10.003906 19.492188 C 10.003906 20.314588 10.681555 20.992188 11.503906 20.992188 L 15.503906 20.992188 C 16.326257 20.992188 17.003906 20.314588 17.003906 19.492188 C 17.003906 18.669787 16.326257 17.992188 15.503906 17.992188 L 11.503906 17.992188 z " transform="translate(0,1010.3622)" display="inline" overflow="visible" visibility="visible" fill="#000000" fill-opacity="1" stroke="none" marker="none"/></g><!-- <text x="0" y="57" fill="#000000" font-size="5px" font-weight="bold" font-family="'Helvetica Neue', Helvetica, Arial-Unicode, Arial, Sans-serif">Created by Chameleon Design</text><text x="0" y="62" fill="#000000" font-size="5px" font-weight="bold" font-family="'Helvetica Neue', Helvetica, Arial-Unicode, Arial, Sans-serif">from the Noun Project</text> --></svg>