<svg xmlns="http://www.w3.org/2000/svg" xmlns:xlink="http://www.w3.org/1999/xlink" version="1.0" x="0px" y="0px" viewBox="0 0 100 125" enable-background="new 0 0 100 100" xml:space="preserve"><path fill="#000000" d="M43.75,68.75h3.75v3.75c0,0.689,0.56,1.25,1.25,1.25h2.5c0.689,0,1.25-0.561,1.25-1.25v-3.75h3.75  c0.689,0,1.25-0.561,1.25-1.25V65c0-0.689-0.561-1.25-1.25-1.25H52.5V60c0-0.689-0.561-1.25-1.25-1.25h-2.5  c-0.69,0-1.25,0.561-1.25,1.25v3.75h-3.75c-0.69,0-1.25,0.561-1.25,1.25v2.5C42.5,68.189,43.06,68.75,43.75,68.75z M75,33.75H62.879  l-6.268-4.178l2.007-4.013c0.087-0.174,0.132-0.365,0.132-0.559v-7.5c0-0.194-0.045-0.385-0.132-0.559  C58.502,16.708,55.707,11.25,50,11.25s-8.502,5.458-8.618,5.691c-0.087,0.174-0.132,0.365-0.132,0.559V25  c0,0.194,0.045,0.385,0.132,0.559l2.007,4.013l-6.268,4.178H25c-0.69,0-1.25,0.56-1.25,1.25v52.5c0,3.445,2.804,6.25,6.25,6.25h40  c3.445,0,6.25-2.805,6.25-6.25V35C76.25,34.31,75.689,33.75,75,33.75z M45.693,31.04c0.524-0.35,0.707-1.035,0.425-1.599  l-2.368-4.736v-6.879c0.536-0.903,2.677-4.076,6.25-4.076c3.576,0,5.717,3.177,6.25,4.075v6.88l-2.368,4.736  c-0.282,0.564-0.1,1.25,0.425,1.599l4.064,2.71H41.629L45.693,31.04z M73.75,87.5c0,2.068-1.684,3.75-3.75,3.75H30  c-2.067,0-3.75-1.682-3.75-3.75V36.25h47.5V87.5z M70,6.25H30c-3.446,0-6.25,2.804-6.25,6.25V20c0,0.69,0.56,1.25,1.25,1.25  s1.25-0.56,1.25-1.25v-7.5c0-2.068,1.683-3.75,3.75-3.75h40c2.066,0,3.75,1.682,3.75,3.75V20c0,0.69,0.561,1.25,1.25,1.25  s1.25-0.56,1.25-1.25v-7.5C76.25,9.054,73.445,6.25,70,6.25z"/><!-- <text x="0" y="115" fill="#000000" font-size="5px" font-weight="bold" font-family="'Helvetica Neue', Helvetica, Arial-Unicode, Arial, Sans-serif">Created by Wojciech Zasina</text><text x="0" y="120" fill="#000000" font-size="5px" font-weight="bold" font-family="'Helvetica Neue', Helvetica, Arial-Unicode, Arial, Sans-serif">from the Noun Project</text> --></svg>